<svg xmlns="http://www.w3.org/2000/svg" width="42.983" height="46.188" viewBox="0 0 42.983 46.188">
  <g id="Сгруппировать_5202" data-name="Сгруппировать 5202" transform="translate(0)">
    <path id="Контур_4354" data-name="Контур 4354" d="M159.815,395.766h17.7a.85.85,0,0,0,0-1.7h-17.7a.85.85,0,0,0,0,1.7Z" transform="translate(-146.168 -358.613)" fill="#fff"/>
    <path id="Контур_4355" data-name="Контур 4355" d="M159.815,434.371h17.7a.85.85,0,0,0,0-1.7h-17.7a.85.85,0,0,0,0,1.7Z" transform="translate(-146.168 -393.762)" fill="#fff"/>
    <path id="Контур_4356" data-name="Контур 4356" d="M196.485,3.227A2.275,2.275,0,0,0,194.212.954h-1.638A3.807,3.807,0,0,0,188.867-2h-21a.851.851,0,0,0-.85.85.851.851,0,0,0,.85.85h21a2.106,2.106,0,0,1,2.1,2.1V40.383a2.106,2.106,0,0,1-2.1,2.1h-3.81a.85.85,0,1,0,0,1.7h3.81a3.809,3.809,0,0,0,3.8-3.8V36.122h1.541a2.275,2.275,0,0,0,2.273-2.273V28.327a2.264,2.264,0,0,0-.5-1.423,2.26,2.26,0,0,0,.5-1.422V19.96a2.262,2.262,0,0,0-.5-1.422,2.262,2.262,0,0,0,.5-1.422V11.593a2.262,2.262,0,0,0-.5-1.422,2.26,2.26,0,0,0,.5-1.422Zm-2.273,6.094h-1.541V2.655h1.541a.573.573,0,0,1,.572.572V8.749A.573.573,0,0,1,194.212,9.321Zm0,8.367h-1.541V11.022h1.541a.573.573,0,0,1,.572.572v5.522A.573.573,0,0,1,194.212,17.688Zm0,8.367h-1.541V19.388h1.541a.573.573,0,0,1,.572.572v5.522A.573.573,0,0,1,194.212,26.054Zm0,8.367h-1.541V27.755h1.541a.573.573,0,0,1,.572.572v5.522A.573.573,0,0,1,194.212,34.421Z" transform="translate(-153.502 2)" fill="#fff"/>
    <path id="Контур_4357" data-name="Контур 4357" d="M44.869,42.487H23.308a2.106,2.106,0,0,1-2.1-2.1V37.553h.837a2.7,2.7,0,0,0,2.666-2.666,2.669,2.669,0,0,0-2.666-2.666H21.2V28.357h.837a2.666,2.666,0,1,0,0-5.332H21.2V19.162h.837A2.669,2.669,0,0,0,24.707,16.5a2.7,2.7,0,0,0-2.666-2.666H21.2V9.967h.837a2.666,2.666,0,1,0,0-5.331H21.2V1.8a2.106,2.106,0,0,1,2.1-2.1h4.375a.851.851,0,0,0,.85-.85.851.851,0,0,0-.85-.85H23.308a3.809,3.809,0,0,0-3.8,3.8V4.635h-.837a2.666,2.666,0,0,0,0,5.332H19.5v3.863h-.837a2.666,2.666,0,0,0,0,5.332H19.5v3.863h-.837a2.666,2.666,0,0,0,0,5.332H19.5V32.22h-.837a2.666,2.666,0,0,0,0,5.332H19.5v2.831a3.809,3.809,0,0,0,3.8,3.8H44.869a.85.85,0,1,0,0-1.7ZM18.666,6.336h3.376a.978.978,0,0,1,.965.965.966.966,0,0,1-.965.965H18.666a.965.965,0,0,1,0-1.93Zm0,9.2h3.376a.965.965,0,1,1,0,1.93H18.666a.965.965,0,0,1,0-1.93Zm0,9.195h3.376a.965.965,0,1,1,0,1.93H18.666a.965.965,0,0,1,0-1.93Zm0,9.2h3.376a.965.965,0,1,1,0,1.93H18.665a.965.965,0,0,1,0-1.93Z" transform="translate(-16 2)" fill="#fff"/>
    <path id="Контур_4358" data-name="Контур 4358" d="M191.7,233.21h0a.718.718,0,0,0-.253,1.413.729.729,0,0,0,.127.011.718.718,0,0,0,.125-1.425Z" transform="translate(-175.207 -212.146)" fill="#fff"/>
    <path id="Контур_4359" data-name="Контур 4359" d="M160.7,97.643l9.555,1.707a4.726,4.726,0,0,0,4.155-1.263,12.46,12.46,0,0,0,2.691-3.819,1.541,1.541,0,0,0,.131-.975l-1.014-5.613a.718.718,0,0,0-.541-.571.9.9,0,0,1-.315-1.608.72.72,0,0,0,.288-.712l-1.063-5.863a.721.721,0,0,0-.58-.578l-1.661-.3a.719.719,0,0,0-.75.352.5.5,0,0,1-.92-.164.719.719,0,0,0-.582-.59l-1.661-.3a.718.718,0,0,0-.833.58.9.9,0,1,1-1.772-.317.718.718,0,0,0-.58-.833l-1.592-.284a.718.718,0,0,0-.833.58l-3.357,18.792A1.528,1.528,0,0,0,160.7,97.643Zm12.887-11.821a2.354,2.354,0,0,0,1.292,2.519l.942,5.214,0,.009a.1.1,0,0,1-.006.064c-1.45,2.91-2.913,4.3-4.589,4.362l1.158-6.48a2.333,2.333,0,0,0,.621-3.478l.88-4.926.28,1.544A2.319,2.319,0,0,0,173.587,85.822Zm-3.132,4.2a.9.9,0,0,1-.148-.673h0a.9.9,0,1,1,.148.673Zm1.242-2.795-.089-.018a2.336,2.336,0,1,0-.826,4.6l.09.014L169.8,97.811l-8.849-1.581a.092.092,0,0,1-.074-.106l3.231-18.086.29.052a2.336,2.336,0,0,0,4.376.782l.645.115a1.931,1.931,0,0,0,3.094.553l.538.1Z" transform="translate(-146.603 -69.462)" fill="#fff"/>
    <path id="Контур_4360" data-name="Контур 4360" d="M209.188,170.009a2.332,2.332,0,1,0-1.745.384,2.365,2.365,0,0,0,.414.037A2.318,2.318,0,0,0,209.188,170.009ZM207.7,168.98a.9.9,0,0,1,.157-1.786.915.915,0,0,1,.16.014.9.9,0,0,1-.317,1.772Z" transform="translate(-188.554 -150.742)" fill="#fff"/>
    <path id="Контур_4361" data-name="Контур 4361" d="M309.818,253.423a1.023,1.023,0,0,0,.827,1.186,1.037,1.037,0,0,0,.181.016,1.022,1.022,0,1,0-1.008-1.2Z" transform="translate(-283.503 -229.792)" fill="#fff"/>
    <path id="Контур_4362" data-name="Контур 4362" d="M185.194,251a.718.718,0,0,0-.833.58l-.327,1.831a.718.718,0,1,0,1.413.252l.327-1.832a.718.718,0,0,0-.58-.833Z" transform="translate(-168.983 -228.344)" fill="#fff"/>
    <path id="Контур_4363" data-name="Контур 4363" d="M257.067,119.926a1.93,1.93,0,1,0,1.561,2.241A1.933,1.933,0,0,0,257.067,119.926Zm-.252,1.413a.5.5,0,0,1,.2.894.491.491,0,0,1-.37.082.5.5,0,0,1,.174-.976Z" transform="translate(-233.422 -108.985)" fill="#fff"/>
    <path id="Контур_4364" data-name="Контур 4364" d="M229.951,252.611h0a1.931,1.931,0,0,0-.679,3.8,1.929,1.929,0,0,0,2.24-1.561,1.933,1.933,0,0,0-1.561-2.241Zm-.056,2.307a.5.5,0,1,1-.284-.9.505.505,0,0,1,.088.008.5.5,0,0,1,.2.894Z" transform="translate(-208.732 -229.792)" fill="#fff"/>
  </g>
</svg>
