<svg xmlns="http://www.w3.org/2000/svg" width="36.136" height="38.883" viewBox="0 0 36.136 38.883">
  <g id="setting" transform="translate(0.911 0.9)">
    <path id="Контур_4451" data-name="Контур 4451" d="M34.594,11.091l-1.2-2.084a3.691,3.691,0,0,0-5.033-1.36h0A3.673,3.673,0,0,1,23.328,6.34a3.534,3.534,0,0,1-.494-1.766h0a3.691,3.691,0,0,0-3.691-3.8H16.723A3.673,3.673,0,0,0,13.05,4.469h0A3.691,3.691,0,0,1,9.36,8.106a3.532,3.532,0,0,1-1.766-.494h0a3.691,3.691,0,0,0-5.033,1.36L1.272,11.091a3.691,3.691,0,0,0,1.342,5.033h0a3.691,3.691,0,0,1,0,6.392h0a3.673,3.673,0,0,0-1.342,5.015h0l1.218,2.1a3.691,3.691,0,0,0,5.033,1.43h0A3.655,3.655,0,0,1,12.538,32.4a3.532,3.532,0,0,1,.494,1.766h0a3.691,3.691,0,0,0,3.691,3.691h2.419a3.69,3.69,0,0,0,3.691-3.673h0A3.673,3.673,0,0,1,26.524,30.5a3.759,3.759,0,0,1,1.766.494h0a3.691,3.691,0,0,0,5.033-1.342h0l1.271-2.119A3.673,3.673,0,0,0,33.252,22.5h0a3.673,3.673,0,0,1-1.342-5.033,3.621,3.621,0,0,1,1.342-1.342h0a3.691,3.691,0,0,0,1.342-5.015h0Z" transform="translate(-0.779 -0.778)" fill="none" stroke="#fff" stroke-linecap="round" stroke-linejoin="round" stroke-width="1.8" fill-rule="evenodd"/>
    <circle id="Эллипс_194" data-name="Эллипс 194" cx="5.691" cy="5.691" r="5.691" transform="translate(11.471 12.85)" fill="none" stroke="#fff" stroke-linecap="round" stroke-linejoin="round" stroke-width="1.8"/>
  </g>
</svg>
