<svg xmlns="http://www.w3.org/2000/svg" width="40" height="40" viewBox="0 0 40 40"><title>button_save2</title><path d="M39.7,4.7,35.3.3a.7.7,0,0,0-.6-.3H.9A.9.9,0,0,0,0,.9V37.6A2.4,2.4,0,0,0,2.4,40H37.6A2.4,2.4,0,0,0,40,37.6V5.3A.9.9,0,0,0,39.7,4.7ZM24.3,1.9v8.3a1,1,0,0,0,1,1,1,1,0,0,0,.9-1V1.9H31V12.7H11.4V1.9ZM8,38.1V21.7H32V38.1Zm30.1-.5a.5.5,0,0,1-.5.5H33.9V20.8a.9.9,0,0,0-1-.9H7.1a.9.9,0,0,0-1,.9V38.1H2.4a.5.5,0,0,1-.5-.5V1.9H9.6V13.6a.9.9,0,0,0,.9,1H31.9a.9.9,0,0,0,1-1V1.9h1.4l3.8,3.8Z" style="fill:#fff"/></svg>