<svg xmlns="http://www.w3.org/2000/svg" width="40" height="40" viewBox="0 0 40 40"><title>button_timer</title><path d="M18.2,33.5h0a1.4,1.4,0,0,1-1.4-1.4V27.8a7.3,7.3,0,0,0-7.2-7.1,7.2,7.2,0,0,0-7,7.1v4.3a1.5,1.5,0,0,1-1.5,1.4,1.1,1.1,0,0,0,0,2.2H18.2a1.1,1.1,0,0,0,0-2.2ZM4.7,33.4a5,5,0,0,0,.2-1.2V27.8A4.8,4.8,0,0,1,9.6,23a4.9,4.9,0,0,1,4.9,4.8v4.3a6.9,6.9,0,0,0,.2,1.3Z" transform="translate(0 0)" style="fill:#1b1c20"/><path d="M11.2,36.9H8.1a.8.8,0,0,0-.8.6.8.8,0,0,0,0,1.1,1.9,1.9,0,0,0,1,1,2.2,2.2,0,0,0,1.3.4,3,3,0,0,0,2.6-1.4,2,2,0,0,0,0-1.1A1.2,1.2,0,0,0,11.2,36.9Z" transform="translate(0 0)" style="fill:#1b1c20"/><path d="M39.7,19.4a17.1,17.1,0,0,0-13.1-13h-.4a3.9,3.9,0,0,0,.6-1.7A3.9,3.9,0,0,0,23.6.1,4,4,0,0,0,19,3.2a7,7,0,0,0,.4,2.9l-.2.3C12.9,7.8,8.3,12,6.8,18.3l2.5-.5c2.4-7.7,10.4-11.3,18.1-8.9a14.7,14.7,0,0,1-4.3,28.8l-2.7-.3a6.4,6.4,0,0,1-1.6,2,17.1,17.1,0,0,0,7.8.3,17.7,17.7,0,0,0,10.7-7.4A18.1,18.1,0,0,0,39.7,19.4ZM24.5,4.6A1.4,1.4,0,0,1,23.1,6a1.3,1.3,0,0,1-1.5-1.3h0a1.5,1.5,0,0,1,1.5-1.5,1.4,1.4,0,0,1,1.4,1.4Z" transform="translate(0 0)" style="fill:#1b1c20"/><path d="M23.1,11.3a1.1,1.1,0,0,0-1.3,1h0v8.4a2.6,2.6,0,0,0-1.2,1.5,2.1,2.1,0,0,0,.2,1.9,2.6,2.6,0,0,0,2.9,1.2l3.8,3.7a1.3,1.3,0,0,0,1.5.1,1.2,1.2,0,0,0,.1-1.7l-3.7-3.7a2.3,2.3,0,0,0-1.2-2.9V12.4A1.1,1.1,0,0,0,23.1,11.3Z" transform="translate(0 0)" style="fill:#1b1c20"/></svg>