<svg id="Слой_1" data-name="Слой 1" xmlns="http://www.w3.org/2000/svg" viewBox="0 0 60 60"><title>icon_work_oxlazhdenie</title><path d="M58.41,31.49a66.71,66.71,0,0,0-4-8.39c-3.29-5.89-7.48-12-10.54-16.55-1-1.42-1.84-2.73-2.68-4L40,.84a2.13,2.13,0,0,0-.56-.56A1.72,1.72,0,0,0,38.53,0,1.84,1.84,0,0,0,37,.83c-1,1.66-2.21,3.41-3.8,5.71C31.26,9.39,28.35,13.68,25.69,18a24.76,24.76,0,0,1,2.71,2.3C30.94,16.13,33.75,12,36,8.59l.12-.17L37.07,7q.59-.9,1.14-1.68l.31-.42.3.41c.38.52.75,1.09,1.15,1.69l.06.09c.27.42.56.85.86,1.29l.58.86c3,4.52,6.8,10.15,9.8,15.46,3.5,6.22,5.2,10.72,5.2,13.76A18,18,0,0,1,29.21,53.87a24,24,0,0,1-2.65,2.49,21.34,21.34,0,0,0,12,3.64h0a21,21,0,0,0,8.31-1.7A21.8,21.8,0,0,0,58.3,46.85,21.16,21.16,0,0,0,60,38.51,20.55,20.55,0,0,0,58.41,31.49Z" transform="translate(0)" fill="#363350"/><path d="M43.44,50.53a1.63,1.63,0,0,0,.84-.23,13.9,13.9,0,0,0,5.15-5,13.6,13.6,0,0,0,2.09-6.91,1.74,1.74,0,0,0-1.63-1.85h-.12a1.75,1.75,0,0,0-1.71,1.63,11,11,0,0,1-1.62,5.2,10.41,10.41,0,0,1-3.94,3.77,1.86,1.86,0,0,0-.82,1.06,1.7,1.7,0,0,0,.14,1.31A1.9,1.9,0,0,0,43.44,50.53Z" transform="translate(0)" fill="#363350"/><path d="M27.4,45.78l1.23.71a1.77,1.77,0,0,0,1.35.17,1.76,1.76,0,0,0,1.26-2.18,1.73,1.73,0,0,0-.83-1.08l-1.23-.71.71-1.23A1.78,1.78,0,0,0,28,38.8a1.74,1.74,0,0,0-1.1.8l0,.07L26.1,40.9l-6.89-4,6.89-4,.7,1.22a1.78,1.78,0,0,0,2.42.71,1.75,1.75,0,0,0,.86-1.06,1.79,1.79,0,0,0-.15-1.36l-.75-1.3,1.23-.71a1.79,1.79,0,0,0,.89-1.54,1.75,1.75,0,0,0-.52-1.26,1.8,1.8,0,0,0-2.15-.28l-1.23.71-.71-1.23A1.75,1.75,0,0,0,25.62,26a1.72,1.72,0,0,0-1.35.14,1.79,1.79,0,0,0-.71,2.42l.75,1.3-6.88,4v-8h1.42a1.79,1.79,0,0,0,1.25-.56,1.75,1.75,0,0,0,.49-1.27,1.79,1.79,0,0,0-1.74-1.74H17.43V20.9a1.79,1.79,0,0,0-3.57,0v1.42H12.4a1.78,1.78,0,0,0-1.78,1.74,1.75,1.75,0,0,0,.49,1.27,1.79,1.79,0,0,0,1.25.56h1.5v7.94L7,29.87l.71-1.23A1.79,1.79,0,1,0,4.6,26.85l-.71,1.23-1.23-.71a1.79,1.79,0,0,0-1.36-.16,1.78,1.78,0,0,0-.42,3.25l1.23.71L1.4,32.4a1.78,1.78,0,0,0,1.94,2.66,1.76,1.76,0,0,0,1.11-.81L5.19,33l6.89,4-6.89,4-.7-1.23a1.8,1.8,0,0,0-1.07-.86A1.79,1.79,0,0,0,1.21,40a1.79,1.79,0,0,0,.15,1.36l.75,1.3L.87,43.4a1.84,1.84,0,0,0-.81,1.1,1.78,1.78,0,0,0,2.6,2l1.23-.71L4.61,47a1.72,1.72,0,0,0,1.1.81,1.75,1.75,0,0,0,1.34-.21,1.78,1.78,0,0,0,.64-2.38L7,44l6.88-4V48H12.4a1.78,1.78,0,0,0,0,3.56h1.5V53a1.75,1.75,0,0,0,.56,1.25,1.73,1.73,0,0,0,1.22.49h0A1.79,1.79,0,0,0,17.43,53V51.53h1.46a1.78,1.78,0,0,0,0-3.56h-1.5V40l6.88,4-.71,1.23a1.79,1.79,0,0,0-.18,1.36,1.75,1.75,0,0,0,.82,1.08A1.78,1.78,0,0,0,26.69,47Z" transform="translate(0)" fill="#363350"/></svg>