<svg xmlns="http://www.w3.org/2000/svg" viewBox="0 0 47.3 47.2"><title>icon_mixer</title><path d="M32.7,23.4h.2c6.6-1.1,12.4-3.2,12.4-6.4s-4.9-4.8-9.1-5.8l-.3-.2,1-1a1.1,1.1,0,0,0,0-1.5h0a1.1,1.1,0,0,0-1.5,0h0L33,10.9a1.1,1.1,0,0,0-.1,1.4l2.5,3.4a1,1,0,1,0,1.8-1l-.2-.3-.8-1.1c4.7,1.2,6.9,2.7,6.9,3.6s-3.7,3.2-10.6,4.4a1.1,1.1,0,0,0-.9,1A1.2,1.2,0,0,0,32.7,23.4Z" transform="translate(-0.5 -0.5)" fill="#363350"/><path d="M16.1,18.3h.3l-1,1a1.1,1.1,0,1,0,1.5,1.5h0l2.4-2.4a1.1,1.1,0,0,0,.1-1.4l-2.5-3.4a1.1,1.1,0,0,0-1.5-.2,1.1,1.1,0,0,0-.2,1.4L16,16c-4.7-1.2-6.9-2.7-6.9-3.6S12.8,9.2,19.7,8a1.1,1.1,0,0,0,.9-1,1,1,0,0,0-1.1-1h-.1C12.7,7.2,7,9.3,7,12.5S11.9,17.4,16.1,18.3Z" transform="translate(-0.5 -0.5)" fill="#363350"/><path d="M44.3,39.1,28.1,35.7V2.4A1.9,1.9,0,0,0,26.2.5a1.8,1.8,0,0,0-1.9,1.9V34.9l-5.5-1.2a6.4,6.4,0,0,1-3.7-2.2l-1.4-1.6a3.4,3.4,0,0,0-1.8-1.1L5.7,27.5a4.5,4.5,0,0,0-3,.4A4.2,4.2,0,0,0,.6,30.8a4.3,4.3,0,0,0,3.3,5.1l25.5,5.5a6.7,6.7,0,0,1,3.7,2.2l1.4,1.6a4.2,4.2,0,0,0,1.8,1.1l6.2,1.3a4.5,4.5,0,0,0,3-.4,4.6,4.6,0,0,0,2.2-2.9A4.5,4.5,0,0,0,44.3,39.1Zm-32-4.9a1.2,1.2,0,0,1-1.5.9L3.4,33.4a1.3,1.3,0,0,1,.5-2.5l7.4,1.7A1.2,1.2,0,0,1,12.3,34.2Zm32.8,8.4a1.2,1.2,0,0,1-1.5.9l-7.4-1.7a1.3,1.3,0,1,1,.5-2.5L44.1,41A1.2,1.2,0,0,1,45.1,42.6Z" transform="translate(-0.5 -0.5)" fill="#363350"/></svg>