<svg xmlns="http://www.w3.org/2000/svg" width="256" height="256" viewBox="0 0 256 256"><title>icon_success</title><path d="M57.2,137.6,98,178.5a9.8,9.8,0,0,0,6.6,2.7,9.6,9.6,0,0,0,6.7-2.7l87.4-87.4a9.6,9.6,0,0,0,.1-13.4h-.1a9.5,9.5,0,0,0-13.4,0l-80.7,80.7-34-34a9.2,9.2,0,0,0-6.6-2.8h-.1a9.4,9.4,0,0,0-6.5,2.6v.2a9.2,9.2,0,0,0-2.8,6.6A9.6,9.6,0,0,0,57.2,137.6Z" fill="#1b1c20"/><path d="M128,18a110,110,0,0,1,77.8,187.8A110,110,0,0,1,50.2,50.2,109.2,109.2,0,0,1,128,18m0-18A128,128,0,1,0,256,128,128,128,0,0,0,128,0Z" fill="#1b1c20"/></svg>