<svg id="_1" data-name="1" xmlns="http://www.w3.org/2000/svg" viewBox="0 0 48 48"><title>icon_red_button</title><path id="_2" data-name="2" d="M48,24A24,24,0,1,0,24,48,24.1,24.1,0,0,0,48,24ZM26.4,24a2.3,2.3,0,0,1-2.3,2.2A2.2,2.2,0,0,1,21.8,24h0V12.1a2.3,2.3,0,0,1,2.3-2.3,2.4,2.4,0,0,1,2.3,2.3Zm13.1,0a15.5,15.5,0,0,1-31,0A15.4,15.4,0,0,1,13,13.1a2.3,2.3,0,0,1,1.7-.7,2.3,2.3,0,0,1,1.6.7,2.2,2.2,0,0,1,0,3.2A10.6,10.6,0,0,0,13.1,24a10.9,10.9,0,1,0,21.8,0,10.7,10.7,0,0,0-3.2-7.7,2.3,2.3,0,0,1,.1-3.2,2.2,2.2,0,0,1,3.2,0A15.4,15.4,0,0,1,39.5,24Z"/></svg>