<svg id="Слой_1" data-name="Слой 1" xmlns="http://www.w3.org/2000/svg" viewBox="0 0 60 79.05"><title>icon_work_nagrev</title><path d="M25.83,74.42H19.55a1.78,1.78,0,0,0-1.78,1.78v1A1.79,1.79,0,0,0,19.55,79h6.27a1.79,1.79,0,0,0,1.79-1.79v-1a1.81,1.81,0,0,0-.52-1.26A1.77,1.77,0,0,0,25.83,74.42Z" transform="translate(0 0.01)" fill="#363350"/><path d="M41.5,74.42H35.23a1.78,1.78,0,0,0-1.27.52,1.81,1.81,0,0,0-.52,1.26v1A1.79,1.79,0,0,0,35.23,79H41.5a1.79,1.79,0,0,0,1.79-1.79v-1a1.78,1.78,0,0,0-.53-1.26A1.74,1.74,0,0,0,41.5,74.42Z" transform="translate(0 0.01)" fill="#363350"/><path d="M28.27,8.6l.72.72a1.34,1.34,0,0,1,0,1.89L27.1,13.1l2.34,2.35,1.9-1.9a4.66,4.66,0,0,0,0-6.58h0l-.73-.73a1.33,1.33,0,0,1,0-1.88l2-2L30.29,0l-2,2a4.66,4.66,0,0,0,0,6.58Z" transform="translate(0 0.01)" fill="#363350"/><path d="M46.22,8.6l.72.73a1.33,1.33,0,0,1,0,1.88L45.05,13.1l2.34,2.35,1.9-1.9a4.65,4.65,0,0,0,0-6.58h0l-.73-.73a1.33,1.33,0,0,1,0-1.88l2-2L48.25,0l-2,2a4.66,4.66,0,0,0,0,6.58Z" transform="translate(0 0.01)" fill="#363350"/><path d="M10.57,8.6l.73.72a1.34,1.34,0,0,1,0,1.89L9.4,13.1l2.34,2.35,1.9-1.9a4.65,4.65,0,0,0,0-6.58h0l-.73-.73a1.35,1.35,0,0,1,0-1.88l2-2L12.6,0l-2,2a4.64,4.64,0,0,0,0,6.57Z" transform="translate(0 0.01)" fill="#363350"/><path d="M14.32,47.68H54a6,6,0,0,0,0-11.94H14.33a2.39,2.39,0,1,1,0-4.78H54A6,6,0,0,0,54,19H6a6,6,0,0,0-6,6V58.43a6,6,0,0,0,6,6H18.51a2.41,2.41,0,0,1,2.39,2.39v6h3.58v-6a6,6,0,0,0-6-6H6a2.42,2.42,0,0,1-2.4-2.39V25A2.41,2.41,0,0,1,6,22.6H54a2.4,2.4,0,0,1,0,4.79H14.32A6,6,0,0,0,10.1,37.57a5.89,5.89,0,0,0,4.21,1.75H54a2.4,2.4,0,0,1,0,4.79H14.33a6,6,0,1,0,0,11.93H54a2.4,2.4,0,0,1,0,4.79H42.55a6,6,0,0,0-6,6v6h3.58v-6a2.4,2.4,0,0,1,2.39-2.39H54a6,6,0,0,0,0-11.93H14.33a2.32,2.32,0,0,1-1.7-.7,2.4,2.4,0,0,1,1.69-4.09Z" transform="translate(0 0.01)" fill="#363350"/></svg>