<svg id="Слой_1" data-name="Слой 1" xmlns="http://www.w3.org/2000/svg" viewBox="0 0 60 79.04"><title>icon_work_mixer</title><path d="M38.9,30c9.57-1.57,17.88-4.55,17.88-9.28,0-4.43-7.09-7-13.11-8.38l-.42-.19,1.46-1.47a1.51,1.51,0,0,0,0-2.14h0a1.51,1.51,0,0,0-2.15,0L39.11,12A1.54,1.54,0,0,0,39,14l3.62,4.86A1.51,1.51,0,1,0,45,17.07L43.85,15.5c6.79,1.67,9.91,3.84,9.91,5.21,0,1.9-5.28,4.67-15.34,6.3a1.49,1.49,0,0,0-1.26,1.5v0A1.5,1.5,0,0,0,38.9,30Z" transform="translate(0)" fill="#363350"/><path d="M17.14,23l.42.19L16.1,24.67a1.53,1.53,0,0,0,0,2.14h0a1.51,1.51,0,0,0,2.15,0l3.45-3.48a1.52,1.52,0,0,0,.14-2l-3.61-4.87a1.52,1.52,0,0,0-2.44,1.81L17,19.84c-6.8-1.68-9.91-3.84-9.91-5.21,0-1.9,5.28-4.68,15.33-6.3a1.49,1.49,0,0,0,1.27-1.5v0a1.5,1.5,0,0,0-1.74-1.45C12.35,6.92,4,9.9,4,14.63,4,19.06,11.13,21.62,17.14,23Z" transform="translate(0)" fill="#363350"/><path d="M56.82,67.6,31.76,54.17V1.75a1.75,1.75,0,0,0-3.5,0V52.3l-3.91-2.12a9.61,9.61,0,0,1-4.19-4.49L18.93,43a4.7,4.7,0,0,0-2.06-2.21L9,36.54a6.23,6.23,0,0,0-4.24-.69A6,6,0,0,0,.7,38.94a6.12,6.12,0,0,0,2.49,8.22L27.72,60.34l.58.29,7.36,4a9.66,9.66,0,0,1,4.18,4.48l1.23,2.74A4.72,4.72,0,0,0,43.14,74L51,78.23a6.34,6.34,0,0,0,4.24.69,6,6,0,0,0,4.09-3.1A6.13,6.13,0,0,0,56.82,67.6ZM17.23,45.83h0a.69.69,0,0,1-.94.29L3.73,39.5a.7.7,0,1,1,.65-1.24L16.94,44.9A.68.68,0,0,1,17.23,45.83ZM56.11,76.52h0a.69.69,0,0,1-.94.3L42.61,70.18A.7.7,0,1,1,43.26,69l12.56,6.63A.69.69,0,0,1,56.11,76.52Z" transform="translate(0)" fill="#363350"/></svg>