<svg id="Слой_1" data-name="Слой 1" xmlns="http://www.w3.org/2000/svg" viewBox="0 0 59.99 60"><title>icon_work_viderzhka</title><path d="M55.82,14.74a1.76,1.76,0,1,0-3,1.79h0a26.49,26.49,0,0,1-37.95,35.2h1.81a1.76,1.76,0,0,0,0-3.52H10A1.75,1.75,0,0,0,8.28,50V56.6a1.76,1.76,0,0,0,3.51,0V53.84a30,30,0,0,0,44-39.1Z" transform="translate(0 0)" fill="#363350"/><path d="M3.52,30A26.49,26.49,0,0,1,45.15,8.27H43.34a1.76,1.76,0,0,0,0,3.52H50A1.75,1.75,0,0,0,51.72,10V3.41a1.76,1.76,0,1,0-3.51,0V6.16a30,30,0,0,0-44,39.1,1.76,1.76,0,0,0,3-1.79A26.39,26.39,0,0,1,3.52,30Z" transform="translate(0 0)" fill="#363350"/><path d="M10.67,30A19.33,19.33,0,1,0,30,10.67h0A19.35,19.35,0,0,0,10.67,30ZM31.76,15.94V14.28a15.73,15.73,0,0,1,8.11,3.37L38.7,18.82a1.75,1.75,0,0,0,2.44,2.52l0,0,1.17-1.17a15.73,15.73,0,0,1,3.37,8.11H44.06a1.76,1.76,0,0,0,0,3.52h1.66a15.76,15.76,0,0,1-3.37,8.11L41.18,38.7a1.75,1.75,0,0,0-2.48,2.48l1.17,1.17a15.73,15.73,0,0,1-8.11,3.37V44.06a1.76,1.76,0,1,0-3.52,0v1.66a15.76,15.76,0,0,1-8.11-3.37l1.17-1.17a1.75,1.75,0,0,0-2.48-2.48l-1.17,1.17a15.76,15.76,0,0,1-3.37-8.11h1.66a1.76,1.76,0,0,0,0-3.52H14.28a15.73,15.73,0,0,1,3.37-8.11l1.17,1.17a1.75,1.75,0,0,0,2.48-2.48l-1.17-1.17a15.76,15.76,0,0,1,8.11-3.37v1.66a1.76,1.76,0,1,0,3.52,0Z" transform="translate(0 0)" fill="#363350"/><path d="M28.24,22.38v6.89l-4.87,4.87a1.76,1.76,0,0,0,2.45,2.53l0,0,5.38-5.39A1.77,1.77,0,0,0,31.76,30V22.38a1.76,1.76,0,0,0-3.52,0Z" transform="translate(0 0)" fill="#363350"/></svg>