<svg xmlns="http://www.w3.org/2000/svg" viewBox="0 0 42.8 47.1"><title>icon_water</title><path d="M44.5,8.6H39.7a.8.8,0,0,0-.7.8v4H32.6V13a2.9,2.9,0,0,0-2.8-2.8H28.6V7.8a.9.9,0,0,0-.8-.8H27V5.4h.8a.9.9,0,0,0,.8-.8V3.9h2.5a2.4,2.4,0,0,0,2.2,1.6,2.4,2.4,0,0,0,2.4-2.4A2.4,2.4,0,0,0,33.3.7a2.4,2.4,0,0,0-2.2,1.6H28.6V1.5a.9.9,0,0,0-.8-.8H24.6a.9.9,0,0,0-.8.8v.8H21.3A2.4,2.4,0,0,0,19.1.7a2.4,2.4,0,0,0-2.4,2.4,2.4,2.4,0,0,0,2.4,2.4,2.4,2.4,0,0,0,2.2-1.6h2.5v.8a.9.9,0,0,0,.8.8h.8V7.1h-.8a.9.9,0,0,0-.8.8v2.4H22.6a2.9,2.9,0,0,0-2.8,2.8v.4H12a5,5,0,0,0-4.9,5v5.3a.9.9,0,0,0,.8.8h4.8a.9.9,0,0,0,.8-.8V21a1.2,1.2,0,0,1,1.2-1.2h5.2v.4A2.9,2.9,0,0,0,22.7,23h7.2a2.9,2.9,0,0,0,2.8-2.8v-.4H39v4a.9.9,0,0,0,.8.8h4.8a.9.9,0,0,0,.8-.8V9.4A1,1,0,0,0,44.5,8.6Z" transform="translate(-2.6 -0.7)"/><path d="M14.6,32.6c-1.7-2.3-3.3-4.1-3.3-4.1a1.1,1.1,0,0,0-.9-.4h-.1a1.8,1.8,0,0,0-.9.4,39.7,39.7,0,0,0-3.3,4.1,23,23,0,0,0-2.3,3.7,8,8,0,0,0-1.2,3.8,7.8,7.8,0,0,0,15.6,0A8,8,0,0,0,17,36.3,19.6,19.6,0,0,0,14.6,32.6Z" transform="translate(-2.6 -0.7)"/></svg>