<svg xmlns="http://www.w3.org/2000/svg" width="256" height="256" viewBox="0 0 256 256"><title>icon_warning</title><path d="M119.1,104.8v48a8.9,8.9,0,1,0,17.8,0v-48a8.9,8.9,0,1,0-17.8,0Z"/><path d="M253.1,206.6,146.5,22.8A21.6,21.6,0,0,0,117.3,15a22.4,22.4,0,0,0-7.8,7.8L2.9,206.6A21.3,21.3,0,0,0,.7,222.8a20.9,20.9,0,0,0,10,12.9,21,21,0,0,0,10.7,2.9H234.6a21.3,21.3,0,0,0,18.5-32Zm-14.9,10.7a3.6,3.6,0,0,1-3.6,3.5H21.4a3.7,3.7,0,0,1-1.8-.5,3.2,3.2,0,0,1-1.6-2.1,3.4,3.4,0,0,1,.3-2.7L125,31.7a4.9,4.9,0,0,1,1.2-1.3A3.9,3.9,0,0,1,128,30a3.3,3.3,0,0,1,3,1.7L237.7,215.5A4.1,4.1,0,0,1,238.2,217.3Z"/><circle cx="128" cy="182.6" r="10.3"/></svg>