<svg id="Слой_1" data-name="Слой 1" xmlns="http://www.w3.org/2000/svg" viewBox="0 0 498.02 391.6"><title>key_backspace</title><path d="M465.38,0H193.89a34.23,34.23,0,0,0-24.82,10.53L6.82,181.34a20.85,20.85,0,0,0,0,28.92L169.07,381.07a34.23,34.23,0,0,0,24.82,10.53H465.38C484,391.6,499,377.1,499,359.21V32.39C499,14.5,484,0,465.38,0ZM469,359.21c0,1-1.38,2.39-3.63,2.39H193.89a4.26,4.26,0,0,1-3.07-1.19L34.46,195.8,190.82,31.19A4.26,4.26,0,0,1,193.89,30H465.38c2.25,0,3.63,1.39,3.63,2.39Z" transform="translate(-0.99)" fill="#e7d700"/><path d="M410.8,103.58a15,15,0,0,0-21.22,0l-71,71-71-71a15,15,0,1,0-21.21,21.21l71,71-71,71A15,15,0,1,0,247.56,288l71-71,71,71a15,15,0,0,0,21.22-21.21l-71-71,71-71A15,15,0,0,0,410.8,103.58Z" transform="translate(-0.99)" fill="#e7d700"/></svg>