<svg id="Слой_1" data-name="Слой 1" xmlns="http://www.w3.org/2000/svg" viewBox="0 0 495.13 495.13"><title>key_lang</title><path d="M477.85,153.09a246.88,246.88,0,0,0-53.72-79l-.69-.69A251.43,251.43,0,0,0,385.9,43.09a246,246,0,0,0-71.84-32.27A249.57,249.57,0,0,0,250,2.43h0A246.88,246.88,0,0,0,76.3,73.67c-.16.15-.32.3-.47.46a247.25,247.25,0,0,0,0,351.73l.49.49a247.25,247.25,0,0,0,347.39,0l.46-.45a247.59,247.59,0,0,0,53.69-272.79Zm-269-116.45a427.43,427.43,0,0,0-52.4,70.23A274.31,274.31,0,0,1,111,83.06,216,216,0,0,1,208.84,36.64Zm-120.21,68A311.32,311.32,0,0,0,142,133.78c-16.19,33.58-25.79,67.54-28.56,101.07H33.27A217.2,217.2,0,0,1,88.63,104.6ZM33.27,265.15h79.52c.16,4.1.43,8.21.8,12.28,2.77,30.5,11.33,60.78,25.44,90.06a312,312,0,0,0-50.4,27.91A217.2,217.2,0,0,1,33.27,265.15ZM111,416.94a274.62,274.62,0,0,1,42.62-22.65c14.25,23.37,32.37,46.47,54,68.83A216,216,0,0,1,111,416.94Zm123.83,30.62c-20.73-20.72-38.13-42-51.85-63.51a236.55,236.55,0,0,1,51.85-8.4Zm0-102.38a265.32,265.32,0,0,0-67.26,11.69c-13.29-26.85-21.3-54.48-23.81-82.19-.29-3.15-.51-6.34-.66-9.53h91.73Zm0-110.33h-91c2.73-30.14,11.65-60.68,26.52-90.89a264.92,264.92,0,0,0,64.53,10.86Zm0-110.5a236.3,236.3,0,0,1-49.39-7.73,390.79,390.79,0,0,1,49.39-63.75Zm231.88,110.5H386.56c-2.8-33.95-12.6-68.32-29.15-102.29a321.42,321.42,0,0,0,53.91-28A217.3,217.3,0,0,1,466.73,234.85ZM388.85,83a290.62,290.62,0,0,1-45.94,22.83,428.22,428.22,0,0,0-51.75-69.14A216.12,216.12,0,0,1,388.85,83ZM265.15,52.87a391.72,391.72,0,0,1,48.65,62.56,261.64,261.64,0,0,1-48.65,8.5Zm0,101.53A293.51,293.51,0,0,0,329,142.58c15.28,30.67,24.42,61.67,27.2,92.27H265.15Zm0,110.75h91.73c-.15,3.19-.37,6.38-.66,9.53-2.55,28.18-10.8,56.28-24.5,83.57a293.68,293.68,0,0,0-66.57-12.65Zm0,110.92a262.74,262.74,0,0,1,51.09,9.17c-13.6,21.07-30.75,42-51.09,62.32Zm27.21,87.05c21.31-22,39.21-44.77,53.36-67.78a290.1,290.1,0,0,1,43.13,21.71A216.09,216.09,0,0,1,292.36,463.12Zm119-67.66a320.67,320.67,0,0,0-50.92-26.79c14.45-29.65,23.2-60.33,26-91.24.37-4.07.64-8.18.8-12.28h79.52A217.3,217.3,0,0,1,411.32,395.46Z" transform="translate(-2.43 -2.43)" fill="#1b1c20"/></svg>