<svg xmlns="http://www.w3.org/2000/svg" width="24" height="24" viewBox="0 0 24 24"><title>settings_calibr</title><path d="M4.5,4.3V.7A.7.7,0,0,0,3.8,0,.7.7,0,0,0,3,.7V4.3A3.7,3.7,0,0,0,0,7.9a3.7,3.7,0,0,0,3,3.7V23.3a.7.7,0,0,0,.8.7.7.7,0,0,0,.7-.7V11.6a3.7,3.7,0,0,0,3-3.7A3.7,3.7,0,0,0,4.5,4.3Zm-.7,5.9a2.3,2.3,0,1,1,0-4.5A2.2,2.2,0,0,1,6,7.9,2.2,2.2,0,0,1,3.8,10.2Z" fill="#1b1c20"/><path d="M21,2.3V.7a.7.7,0,0,0-.7-.7.7.7,0,0,0-.8.7V2.3a3.8,3.8,0,0,0-3,3.7,3.8,3.8,0,0,0,3,3.7V23.3a.7.7,0,0,0,.8.7.7.7,0,0,0,.7-.7V9.7A3.8,3.8,0,0,0,24,6,3.8,3.8,0,0,0,21,2.3Zm-.7,6A2.3,2.3,0,0,1,18,6a2.3,2.3,0,1,1,4.5,0A2.3,2.3,0,0,1,20.3,8.3Z" fill="#1b1c20"/><path d="M12.7,14.3V.7a.7.7,0,1,0-1.4,0V14.3a3.7,3.7,0,0,0-3,3.7,3.7,3.7,0,0,0,3,3.7v1.6a.7.7,0,0,0,1.4,0V21.7A3.8,3.8,0,0,0,15.8,18,3.8,3.8,0,0,0,12.7,14.3Zm-.7,6A2.3,2.3,0,0,1,9.7,18a2.3,2.3,0,0,1,4.6,0A2.3,2.3,0,0,1,12,20.3Z" fill="#1b1c20"/></svg>