<svg xmlns="http://www.w3.org/2000/svg" width="24" height="24" viewBox="0 0 24 24"><title>settings_sound</title><path d="M15.1,1.3a1.4,1.4,0,0,0-.9-.1,1.3,1.3,0,0,0-1.1.4L5.6,7.5a1.9,1.9,0,0,0-1.4-.8H1.9A2.1,2.1,0,0,0,0,8.7v6.7a1.9,1.9,0,0,0,1.9,1.8H4.2a1.7,1.7,0,0,0,1.4-.7l7.5,5.9a1.9,1.9,0,0,0,1.1.4c.4,0,.7,0,.9-.2a1.8,1.8,0,0,0,1.1-1.7V3.1A2,2,0,0,0,15.1,1.3Zm-.4,19.6a.5.5,0,0,1-.2.4c-.1.1-.2.1-.4-.1l-8-6.1h0V8.9l8-6.2h.4c.1,0,.2.2.2.4ZM4.5,8.7v6.7c0,.2-.1.4-.3.4H1.9c-.2,0-.4-.3-.4-.4V8.7c0-.1,0-.3.1-.3l.3-.2H4.2C4.4,8.2,4.5,8.4,4.5,8.7Z" fill="#1b1c20"/><path d="M23.3,3.4h0a.7.7,0,0,0-.8.7V19.9a.8.8,0,0,0,.4.7h.8a.9.9,0,0,0,.3-.7V4.2A.7.7,0,0,0,23.3,3.4Zm0,.2Z" fill="#1b1c20"/><path d="M18.8,8.4h-.1a.7.7,0,0,0-.7.7v5.7a.7.7,0,0,0,.8.7.7.7,0,0,0,.7-.7V9.1a.8.8,0,0,0-.2-.5C19.2,8.4,19,8.4,18.8,8.4Zm-.1.2Z" fill="#1b1c20"/><path d="M21,5.7h0c-.2,0-.4,0-.5.2s-.2.3-.2.5V17.7a.7.7,0,0,0,1.4,0V6.4C21.8,6,21.4,5.7,21,5.7Z" fill="#1b1c20"/></svg>