<svg xmlns="http://www.w3.org/2000/svg" width="24" height="24" viewBox="0 0 24 24"><title>settings_system</title><path d="M12.8,1.5h0a.9.9,0,0,1,.9.9h0a3.7,3.7,0,0,0,.5,1.8,3.9,3.9,0,0,0,3.3,1.9,3.5,3.5,0,0,0,2-.5h.4a.8.8,0,0,1,.8.5l.8,1.2h0a1,1,0,0,1-.3,1.3,3.2,3.2,0,0,0-1.4,1.4,3.7,3.7,0,0,0-.4,2.9,3.8,3.8,0,0,0,1.8,2.3,1,1,0,0,1,.3,1.3L20.7,18a1.2,1.2,0,0,1-.8.4h-.5a3.7,3.7,0,0,0-1.8-.5h-.1a3.8,3.8,0,0,0-3.8,3.8.9.9,0,0,1-.9.9H11.2a.9.9,0,0,1-.9-.9,4.1,4.1,0,0,0-.5-1.9,3.9,3.9,0,0,0-3.3-1.9,4.6,4.6,0,0,0-2,.5H4.1a.7.7,0,0,1-.8-.5l-.8-1.3a1,1,0,0,1,.3-1.3,3.2,3.2,0,0,0,1.4-1.4A3.7,3.7,0,0,0,2.8,8.7a1,1,0,0,1-.3-1.3L3.3,6a.9.9,0,0,1,.8-.4h.5a3.7,3.7,0,0,0,1.8.5,3.9,3.9,0,0,0,3.9-3.8.9.9,0,0,1,.9-.9h1.6m0-1.5H11.2A2.4,2.4,0,0,0,8.8,2.4h0A2.3,2.3,0,0,1,6.4,4.7a2.3,2.3,0,0,1-1.1-.3,2.7,2.7,0,0,0-1.2-.3A2.5,2.5,0,0,0,2,5.3L1.2,6.7a2.3,2.3,0,0,0,.9,3.2A2.6,2.6,0,0,1,3,13.2a3.8,3.8,0,0,1-.9.9,2.3,2.3,0,0,0-.9,3.2L2,18.7a2.4,2.4,0,0,0,2.1,1.2,2.7,2.7,0,0,0,1.2-.3h0a2.1,2.1,0,0,1,1.2-.3,2.2,2.2,0,0,1,2,1.2h0a2,2,0,0,1,.3,1.1A2.4,2.4,0,0,0,11.2,24h1.6a2.4,2.4,0,0,0,2.4-2.4,2.3,2.3,0,0,1,2.3-2.4h.1a2.1,2.1,0,0,1,1.1.4l1.2.3A2.5,2.5,0,0,0,22,18.7l.8-1.4a2.3,2.3,0,0,0-.9-3.2h0a2.5,2.5,0,0,1-.9-3.3h0l.9-.9a2.4,2.4,0,0,0,.9-3.2h0L22,5.3a2.4,2.4,0,0,0-2.1-1.2l-1.2.3a1.6,1.6,0,0,1-1.2.4,2.2,2.2,0,0,1-2-1.2h0a2,2,0,0,1-.3-1.1A2.4,2.4,0,0,0,12.9,0Z" fill="#1b1c20"/><path d="M12,9.8A2.2,2.2,0,1,1,9.8,12,2.2,2.2,0,0,1,12,9.8m0-1.5A3.7,3.7,0,1,0,15.7,12,3.8,3.8,0,0,0,12,8.3Z" fill="#1b1c20"/></svg>