<svg xmlns="http://www.w3.org/2000/svg" width="24" height="24" viewBox="0 0 24 24"><title>settings_lang</title><path d="M23,7.3a12.2,12.2,0,0,0-2.6-3.8h0L18.6,2A12.3,12.3,0,0,0,15.1.4,11,11,0,0,0,12,0h0A11.5,11.5,0,0,0,3.6,3.5h0a11.9,11.9,0,0,0-.1,16.9c0,.1,0,.1.1.1h0a11.8,11.8,0,0,0,16.8,0h0A11.8,11.8,0,0,0,23,7.3ZM10,1.7A14.2,14.2,0,0,0,7.5,5.1,15.5,15.5,0,0,1,5.3,3.9,10.2,10.2,0,0,1,10,1.7ZM4.2,5,6.8,6.4a12.5,12.5,0,0,0-1.4,4.9H1.5A10.3,10.3,0,0,1,4.2,5ZM1.5,12.7H5.4v.6a11.6,11.6,0,0,0,1.2,4.4L4.2,19A10.3,10.3,0,0,1,1.5,12.7Zm3.8,7.4,2-1.1a25,25,0,0,0,2.6,3.3A9.9,9.9,0,0,1,5.3,20.1Zm6,1.5a17,17,0,0,1-2.5-3.1,10.1,10.1,0,0,1,2.5-.4Zm0-5a12.8,12.8,0,0,0-3.3.6,12,12,0,0,1-1.1-4,.9.9,0,0,1-.1-.5h4.5Zm0-5.3H6.9A11.6,11.6,0,0,1,8.1,6.9a17.7,17.7,0,0,0,3.2.5Zm0-5.4a10,10,0,0,1-2.4-.4,23.4,23.4,0,0,1,2.4-3.1Zm11.2,5.4H18.6a13.4,13.4,0,0,0-1.4-5,13,13,0,0,0,2.6-1.4,10.8,10.8,0,0,1,2.7,6.4ZM18.7,3.9A15.1,15.1,0,0,1,16.5,5,20.4,20.4,0,0,0,14,1.7,10.2,10.2,0,0,1,18.7,3.9Zm-6-1.5a23.4,23.4,0,0,1,2.4,3.1l-2.4.4Zm0,5a15.5,15.5,0,0,0,3.1-.6,11,11,0,0,1,1.3,4.5H12.7Zm0,5.3h4.5a.9.9,0,0,1-.1.5,11.4,11.4,0,0,1-1.1,4,19.1,19.1,0,0,0-3.3-.6Zm0,5.4a10.1,10.1,0,0,1,2.5.5,16.6,16.6,0,0,1-2.5,3Zm1.4,4.2A13.1,13.1,0,0,0,16.6,19a10.3,10.3,0,0,1,2.1,1.1A9.9,9.9,0,0,1,14.1,22.3ZM19.8,19l-2.4-1.3a11.6,11.6,0,0,0,1.2-4.4,1.3,1.3,0,0,1,.1-.6h3.8A10.3,10.3,0,0,1,19.8,19Z" fill="#1b1c20"/></svg>