<svg id="Слой_1" data-name="Слой 1" xmlns="http://www.w3.org/2000/svg" viewBox="0 0 214.91 50"><title>maggio_logo</title><path d="M39.74,5.93A5.75,5.75,0,0,0,38,1.73,5.47,5.47,0,0,0,34,0H32.85a6,6,0,0,0-2.46.39,3.93,3.93,0,0,0-1.31,1,4.76,4.76,0,0,0-.82,1.24,6.82,6.82,0,0,1-1,1.58C26,5.42,25,6.58,23.92,7.65s-2.11,2.22-3.27,3.46l-.57.6-.57-.59-8.73-9v0l0,0A6.08,6.08,0,0,0,8.8.56,5.54,5.54,0,0,0,6.32,0h-3A4.64,4.64,0,0,0,.66.48,1.59,1.59,0,0,0,0,1.61,6.73,6.73,0,0,0,.19,3.69,17.89,17.89,0,0,1,.55,6.38V37.5a5.8,5.8,0,0,0,1.66,4.24,5.46,5.46,0,0,0,4.11,1.69,5.39,5.39,0,0,0,4-1.69,6,6,0,0,0,1.73-4.26L12,22.15V20.24l1.35,1.35,2.72,2.71a5.61,5.61,0,0,0,8.17,0l2.65-2.72,1.34-1.37v1.92l.07,15.36a5.88,5.88,0,0,0,1.6,4.25,5.24,5.24,0,0,0,4,1.68,5.11,5.11,0,0,0,.78,0,10.84,10.84,0,0,1,.61-2.77v0l0-.06,4.35-10.86Z" fill="#f5e700"/><path d="M74.84,41.6c-.68-.57-1.32-1.16-1.9-1.75a25.83,25.83,0,0,1-7.32-18.13c0-.89,0-1.8.14-2.73L62.57,11a9.9,9.9,0,0,0-2.31-3.25A4.6,4.6,0,0,0,57,6.6h-.77a5.93,5.93,0,0,0-3,.6,3.45,3.45,0,0,0-1.34,1.41,6.34,6.34,0,0,0-.56,1.94,7.65,7.65,0,0,1-.55,2.16L39,42a6,6,0,0,0,.1,4.57,5.5,5.5,0,0,0,3.29,3,5.61,5.61,0,0,0,2.09.42h.16a5.36,5.36,0,0,0,2.13-.5,6,6,0,0,0,3-3.32v0l.84-1.86.21-.46H63.11l.21.46.84,1.86v0a6,6,0,0,0,1.24,2,5.73,5.73,0,0,0,1.82,1.33,5.32,5.32,0,0,0,2.13.5h.15a5.62,5.62,0,0,0,2.08-.41,5.56,5.56,0,0,0,3.31-3.05,6,6,0,0,0,.08-4.6Zm-15.66-5H53.69l.43-1.09,2.17-5.35L57,28.36l.73,1.81,2.16,5.35.44,1.09Z" fill="#f5e700"/><path d="M145.34,30.21H133.26a4.24,4.24,0,0,0-2.27.56c-.3.19-.71.58-.71,1.66a4.43,4.43,0,0,0,.85,2.52A3,3,0,0,0,133,36.37l2.85.58-2.75.94a13.44,13.44,0,0,1-1.38.38,7,7,0,0,1-1.53.16,8.88,8.88,0,0,1-3.75-.82,10.51,10.51,0,0,1-3.06-2.17,10.12,10.12,0,0,1-2.08-10.88,10.46,10.46,0,0,1,2-3.24,9.53,9.53,0,0,1,3.08-2.22,9.08,9.08,0,0,1,3.78-.82,7.72,7.72,0,0,1,4.23,1.23,17.25,17.25,0,0,1,3.19,2.67l0,0,0,0a2.77,2.77,0,0,0,.54.62l0,.05.05,0a4.67,4.67,0,0,0,1.83,1.26,6.12,6.12,0,0,0,2.16.41,5.83,5.83,0,0,0,2.12-.41A5.51,5.51,0,0,0,146.31,23,5.57,5.57,0,0,0,147.53,21a6.13,6.13,0,0,0,.44-2.25,6,6,0,0,0-.43-2.2,6.56,6.56,0,0,0-1.25-2,23.83,23.83,0,0,0-7.12-5.84,18.82,18.82,0,0,0-9-2.19A20.1,20.1,0,0,0,122,8.29a22.08,22.08,0,0,0-6.77,4.65,21.59,21.59,0,0,0-4.55,6.9,22.09,22.09,0,0,0,4.55,23.82A21.27,21.27,0,0,0,122,48.32a21,21,0,0,0,14,.86,20,20,0,0,0,5.14-2.34l1-.63.22,1.14a2.87,2.87,0,0,0,1.31,1.86A4.16,4.16,0,0,0,146,50a1.81,1.81,0,0,0,1.69-.75,4.25,4.25,0,0,0,.6-2.32V33.28a3,3,0,0,0-.86-2.2A2.84,2.84,0,0,0,145.34,30.21Z" fill="#f5e700"/><path d="M105.06,28.28a26.56,26.56,0,0,1,.4-4.63H93.83a4.22,4.22,0,0,0-2.27.55c-.31.2-.71.58-.71,1.66a4.55,4.55,0,0,0,.84,2.53,3,3,0,0,0,1.88,1.41l2.84.58-2.75.94a12.17,12.17,0,0,1-1.38.38,6.94,6.94,0,0,1-1.52.16A8.93,8.93,0,0,1,87,31a10.34,10.34,0,0,1-3-2.17,9.95,9.95,0,0,1-2.84-7A10.22,10.22,0,0,1,81.86,18a10.61,10.61,0,0,1,2-3.24A9.68,9.68,0,0,1,87,12.53a9.08,9.08,0,0,1,3.78-.82A7.67,7.67,0,0,1,95,13a16.45,16.45,0,0,1,3.18,2.66l0,0,0,0a3.51,3.51,0,0,0,.54.62l.06.05,0,0a4.74,4.74,0,0,0,1.82,1.26,6.18,6.18,0,0,0,2.17.41,5.87,5.87,0,0,0,2.12-.41,5.48,5.48,0,0,0,1.88-1.28,5.65,5.65,0,0,0,1.23-1.92,6.08,6.08,0,0,0,.43-2.25,5.79,5.79,0,0,0-.43-2.2,6.56,6.56,0,0,0-1.25-2,23.82,23.82,0,0,0-7.11-5.84,18.82,18.82,0,0,0-9-2.19,20.1,20.1,0,0,0-8.23,1.72,22,22,0,0,0-6.78,4.65,21.51,21.51,0,0,0-4.54,6.9,22.44,22.44,0,0,0,0,16.89,21.82,21.82,0,0,0,4.55,6.94,21.36,21.36,0,0,0,6.76,4.65,21,21,0,0,0,14,.86,20.17,20.17,0,0,0,5.14-2.34l1-.63.23,1.14a2.83,2.83,0,0,0,1.31,1.86,4.16,4.16,0,0,0,2.38.79,1.78,1.78,0,0,0,1.68-.75,3.34,3.34,0,0,0,.44-1,27,27,0,0,1-1.71-3.4A25.72,25.72,0,0,1,105.06,28.28Z" fill="#f5e700"/><path d="M201,12.94a21.59,21.59,0,0,0-6.74-4.65,20.53,20.53,0,0,0-16.45,0A22,22,0,0,0,171,12.94a21.4,21.4,0,0,0-4.54,6.9,22.44,22.44,0,0,0,0,16.89,21.4,21.4,0,0,0,11.31,11.59,21,21,0,0,0,16.47,0A21,21,0,0,0,201,43.67a22.7,22.7,0,0,0,4.55-6.94,22.07,22.07,0,0,0,0-16.89A22.28,22.28,0,0,0,201,12.94Zm-6.07,19.21a10.39,10.39,0,0,1-2.08,3.25,10.28,10.28,0,0,1-3.06,2.21,8.92,8.92,0,0,1-3.75.82,9.13,9.13,0,0,1-3.79-.82,9.49,9.49,0,0,1-3.07-2.22,10.49,10.49,0,0,1-2-3.24,10,10,0,0,1,0-7.59,10.49,10.49,0,0,1,2-3.24,9.49,9.49,0,0,1,3.07-2.22,9.13,9.13,0,0,1,3.79-.82,8.77,8.77,0,0,1,3.75.83,10.13,10.13,0,0,1,3.05,2.16,10.06,10.06,0,0,1,2.85,7A10.23,10.23,0,0,1,194.92,32.15Z" fill="#f5e700"/><path d="M162.52,1.73A5.82,5.82,0,0,0,160.7.47,5.29,5.29,0,0,0,158.51,0h-3a4.61,4.61,0,0,0-2.66.48,1.55,1.55,0,0,0-.64,1.13,6.7,6.7,0,0,0,.16,2.08,16.66,16.66,0,0,1,.36,2.7V37.5a5.76,5.76,0,0,0,1.66,4.24,5.81,5.81,0,0,0,8.19,0,5.72,5.72,0,0,0,1.13-1.59c-.31-.62-.61-1.26-.88-1.9a26.44,26.44,0,0,1,0-19.93,29.4,29.4,0,0,1,1.44-2.93V6a7.16,7.16,0,0,0-.53-2.38A6.06,6.06,0,0,0,162.52,1.73Z" fill="#f5e700"/><path d="M211,5.86a1.47,1.47,0,0,0,.74-.54A1.61,1.61,0,0,0,212,4.4a1.42,1.42,0,0,0-.51-1.22,2.27,2.27,0,0,0-1.37-.38h-1.77a.29.29,0,0,0-.31.3V7.56a.28.28,0,0,0,.09.22.26.26,0,0,0,.22.08h.23a.27.27,0,0,0,.22-.08.28.28,0,0,0,.09-.22V6h1.23l1,1.59a.46.46,0,0,0,.41.26h.19a.29.29,0,0,0,.23-.09.31.31,0,0,0,.07-.21.3.3,0,0,0-.05-.19Zm-.91-.65h-1.2V3.6h1.2c.71,0,1.07.27,1.07.8S210.82,5.21,210.11,5.21Z" fill="#f5e700"/><path d="M214.24,2.85A5.09,5.09,0,0,0,212.43,1a5,5,0,0,0-5,0,5.09,5.09,0,0,0-1.81,1.82,4.8,4.8,0,0,0-.67,2.5,4.79,4.79,0,0,0,.67,2.49,5.09,5.09,0,0,0,1.81,1.82,5,5,0,0,0,5,0,5.09,5.09,0,0,0,1.81-1.82,4.79,4.79,0,0,0,.67-2.49A4.8,4.8,0,0,0,214.24,2.85Zm-.72,4.6A4.29,4.29,0,0,1,212,9a4,4,0,0,1-4.16,0,4.29,4.29,0,0,1-1.51-1.54,4.24,4.24,0,0,1,0-4.21,4.29,4.29,0,0,1,1.51-1.54,4,4,0,0,1,4.16,0,4.29,4.29,0,0,1,1.51,1.54,4.24,4.24,0,0,1,0,4.21Z" fill="#f5e700"/></svg>